<?xml version="1.0" encoding="UTF-8" standalone="no"?><!DOCTYPE svg PUBLIC "-//W3C//DTD SVG 1.1//EN" "http://www.w3.org/Graphics/SVG/1.1/DTD/svg11.dtd"><svg width="100%" height="100%" viewBox="0 0 85 85" version="1.1" xmlns="http://www.w3.org/2000/svg" xmlns:xlink="http://www.w3.org/1999/xlink" xml:space="preserve" xmlns:serif="http://www.serif.com/" style="fill-rule:evenodd;clip-rule:evenodd;stroke-linejoin:round;stroke-miterlimit:1.41421;"><rect id="Icon-White-on-Blue--Square-" serif:id="Icon White on Blue (Square)" x="0.015" y="0.094" width="84" height="84" style="fill:none;"/><rect id="Background" x="0.015" y="0.094" width="84" height="84" style="fill:#466dd8;"/><g id="Icon"><path d="M29.061,50.556l-2.258,-1.289l-6.066,10.451c-5.483,-7.613 -6.58,-17.872 -2.322,-26.712l0.064,-0.065c0.258,-0.58 0.581,-1.097 0.839,-1.612c4.323,-7.486 11.873,-12.067 19.873,-12.905c1.42,-1.936 2.969,-3.614 4.711,-5.227c-11.421,-0.645 -22.843,5.032 -28.972,15.615c-7.872,13.679 -4.258,30.842 7.872,40.263l6.065,-18.003c0.065,-0.128 0.13,-0.322 0.194,-0.516m36.908,-16.712c3.227,7.421 3.033,16.196 -1.291,23.681c-0.257,0.517 -0.58,1.031 -0.903,1.549l-0.064,0.065c-5.549,8.13 -14.97,12.323 -24.326,11.355l6.066,-10.453l-2.259,-1.291c-0.129,0.131 -0.258,0.259 -0.387,0.389l-12.518,14.26c14.196,5.807 30.907,0.322 38.779,-13.358c6.13,-10.58 5.356,-23.293 -0.967,-32.842c-0.517,2.258 -1.162,4.516 -2.13,6.645" style="fill:#fff;"/><path d="M44.999,50.169c-1.614,2.13 -4.194,3.227 -6.968,3.485c-0.839,0.065 -1.614,-0.387 -2.001,-1.161c-1.162,-2.518 -1.548,-5.291 -0.451,-7.744l-12.648,-7.291c-0.838,-0.516 -1.225,-1.355 -0.967,-2.258c0.193,-0.904 0.967,-1.549 1.871,-1.549l12.84,-0.451c0.968,-3.937 2.581,-7.679 4.904,-11.163c3.678,-5.485 8.904,-9.55 15.034,-12.002c1.485,-0.58 2.968,-1.096 4.453,-1.484c1.096,-0.258 2.193,0.388 2.451,1.421c0.452,1.483 0.775,3.032 1.033,4.58c0.903,6.582 -0.065,13.163 -2.903,19.099c-1.807,3.743 -4.324,6.969 -7.228,9.807l6.001,11.292c0.452,0.839 0.323,1.807 -0.387,2.453c-0.645,0.645 -1.614,0.71 -2.387,0.258l-12.647,-7.292Zm9.549,-27.035c1.936,1.161 2.581,3.613 1.485,5.549c-1.098,1.935 -3.613,2.581 -5.55,1.484c-1.935,-1.097 -2.58,-3.614 -1.484,-5.549c1.162,-1.936 3.614,-2.581 5.549,-1.484" style="fill:#fff;"/><path d="M26.093,72.043l13.679,-15.55c-0.516,0.064 -1.032,0.129 -1.549,0.193c-2.064,0.13 -4,-0.968 -4.902,-2.903c-0.259,-0.452 -0.453,-0.904 -0.646,-1.42l-6.582,19.68Z" style="fill:#fff;"/></g></svg>