<?xml version="1.0" encoding="UTF-8" standalone="no"?><!DOCTYPE svg PUBLIC "-//W3C//DTD SVG 1.1//EN" "http://www.w3.org/Graphics/SVG/1.1/DTD/svg11.dtd"><svg width="100%" height="100%" viewBox="0 0 63 68" version="1.1" xmlns="http://www.w3.org/2000/svg" xmlns:xlink="http://www.w3.org/1999/xlink" xml:space="preserve" xmlns:serif="http://www.serif.com/" style="fill-rule:evenodd;clip-rule:evenodd;stroke-linejoin:round;stroke-miterlimit:1.41421;"><rect id="Icon-Black" serif:id="Icon Black" x="0.008" y="0.169" width="62.64" height="67.2" style="fill:none;"/><clipPath id="_clip1"><rect x="0.008" y="0.169" width="62.64" height="67.2"/></clipPath><g clip-path="url(#_clip1)"><g id="Icon"><path d="M18.374,42.231l-2.259,-1.29l-6.066,10.452c-5.483,-7.613 -6.58,-17.873 -2.322,-26.712l0.064,-0.065c0.259,-0.581 0.581,-1.097 0.839,-1.613c4.323,-7.485 11.873,-12.067 19.873,-12.905c1.42,-1.935 2.969,-3.614 4.711,-5.226c-11.421,-0.645 -22.842,5.032 -28.972,15.615c-7.872,13.679 -4.258,30.841 7.873,40.263l6.065,-18.003c0.065,-0.128 0.129,-0.323 0.194,-0.516m36.907,-16.712c3.227,7.421 3.033,16.195 -1.29,23.681c-0.258,0.516 -0.581,1.031 -0.903,1.548l-0.065,0.066c-5.549,8.129 -14.969,12.323 -24.326,11.355l6.066,-10.453l-2.258,-1.291c-0.129,0.13 -0.258,0.259 -0.388,0.389l-12.518,14.259c14.196,5.808 30.908,0.323 38.779,-13.357c6.131,-10.581 5.356,-23.293 -0.967,-32.842c-0.516,2.257 -1.162,4.516 -2.13,6.645"/><path d="M34.311,41.843c-1.614,2.13 -4.194,3.228 -6.968,3.485c-0.839,0.065 -1.614,-0.387 -2.001,-1.161c-1.162,-2.517 -1.548,-5.291 -0.451,-7.743l-12.647,-7.291c-0.839,-0.516 -1.226,-1.356 -0.968,-2.258c0.194,-0.904 0.968,-1.55 1.872,-1.55l12.839,-0.451c0.968,-3.936 2.581,-7.678 4.904,-11.163c3.678,-5.484 8.905,-9.549 15.034,-12.001c1.485,-0.581 2.969,-1.096 4.453,-1.484c1.096,-0.258 2.193,0.388 2.451,1.421c0.452,1.482 0.775,3.031 1.033,4.579c0.903,6.582 -0.065,13.163 -2.903,19.099c-1.807,3.743 -4.324,6.97 -7.227,9.808l6,11.292c0.453,0.839 0.323,1.807 -0.386,2.452c-0.646,0.645 -1.614,0.71 -2.388,0.258l-12.647,-7.292Zm9.55,-27.035c1.935,1.162 2.58,3.614 1.484,5.549c-1.097,1.936 -3.613,2.582 -5.549,1.485c-1.936,-1.098 -2.581,-3.614 -1.485,-5.55c1.162,-1.935 3.614,-2.581 5.55,-1.484"/><path d="M15.405,63.718l13.68,-15.551c-0.516,0.065 -1.033,0.129 -1.549,0.194c-2.065,0.129 -4.001,-0.968 -4.903,-2.903c-0.259,-0.452 -0.453,-0.904 -0.646,-1.42l-6.582,19.68Z"/></g></g></svg>