<?xml version="1.0" encoding="UTF-8" standalone="no"?><!DOCTYPE svg PUBLIC "-//W3C//DTD SVG 1.1//EN" "http://www.w3.org/Graphics/SVG/1.1/DTD/svg11.dtd"><svg width="100%" height="100%" viewBox="0 0 63 68" version="1.1" xmlns="http://www.w3.org/2000/svg" xmlns:xlink="http://www.w3.org/1999/xlink" xml:space="preserve" xmlns:serif="http://www.serif.com/" style="fill-rule:evenodd;clip-rule:evenodd;stroke-linejoin:round;stroke-miterlimit:1.41421;"><rect id="Icon-White" serif:id="Icon White" x="0.008" y="0.132" width="62.64" height="67.2" style="fill:none;"/><clipPath id="_clip1"><rect x="0.008" y="0.132" width="62.64" height="67.2"/></clipPath><g clip-path="url(#_clip1)"><g id="Icon"><path d="M18.374,42.194l-2.259,-1.29l-6.066,10.451c-5.483,-7.613 -6.58,-17.872 -2.322,-26.711l0.064,-0.065c0.259,-0.581 0.581,-1.097 0.839,-1.613c4.323,-7.486 11.873,-12.067 19.873,-12.905c1.42,-1.935 2.969,-3.614 4.711,-5.226c-11.421,-0.646 -22.842,5.032 -28.972,15.615c-7.872,13.678 -4.258,30.841 7.873,40.263l6.065,-18.003c0.065,-0.129 0.129,-0.323 0.194,-0.516m36.907,-16.712c3.227,7.421 3.033,16.195 -1.29,23.68c-0.258,0.517 -0.581,1.032 -0.903,1.549l-0.065,0.065c-5.549,8.13 -14.969,12.323 -24.326,11.356l6.066,-10.454l-2.258,-1.291c-0.129,0.131 -0.258,0.259 -0.388,0.389l-12.518,14.26c14.196,5.808 30.908,0.323 38.779,-13.358c6.131,-10.58 5.356,-23.292 -0.967,-32.841c-0.516,2.257 -1.162,4.516 -2.13,6.645" style="fill:#fff;"/><path d="M34.311,41.806c-1.614,2.13 -4.194,3.227 -6.968,3.485c-0.839,0.065 -1.614,-0.387 -2.001,-1.161c-1.162,-2.518 -1.548,-5.291 -0.451,-7.743l-12.647,-7.292c-0.839,-0.516 -1.226,-1.355 -0.968,-2.258c0.194,-0.904 0.968,-1.549 1.872,-1.549l12.839,-0.451c0.968,-3.936 2.581,-7.678 4.904,-11.163c3.678,-5.485 8.905,-9.55 15.034,-12.001c1.485,-0.581 2.969,-1.096 4.453,-1.484c1.096,-0.259 2.193,0.388 2.451,1.42c0.452,1.483 0.775,3.032 1.033,4.58c0.903,6.582 -0.065,13.163 -2.903,19.099c-1.807,3.743 -4.324,6.969 -7.227,9.808l6,11.292c0.453,0.838 0.323,1.806 -0.386,2.452c-0.646,0.645 -1.614,0.71 -2.388,0.258l-12.647,-7.292Zm9.55,-27.035c1.935,1.161 2.58,3.613 1.484,5.549c-1.097,1.936 -3.613,2.581 -5.549,1.484c-1.936,-1.097 -2.581,-3.613 -1.485,-5.549c1.162,-1.936 3.614,-2.581 5.55,-1.484" style="fill:#fff;"/><path d="M15.405,63.68l13.68,-15.55c-0.516,0.065 -1.033,0.129 -1.549,0.193c-2.065,0.13 -4.001,-0.968 -4.903,-2.902c-0.259,-0.452 -0.453,-0.904 -0.646,-1.42l-6.582,19.679Z" style="fill:#fff;"/></g></g></svg>