<?xml version="1.0" encoding="utf-8"?>
<!-- Generator: Adobe Illustrator 16.0.0, SVG Export Plug-In . SVG Version: 6.00 Build 0)  -->
<!DOCTYPE svg PUBLIC "-//W3C//DTD SVG 1.1//EN" "http://www.w3.org/Graphics/SVG/1.1/DTD/svg11.dtd">
<svg version="1.1" xmlns="http://www.w3.org/2000/svg" xmlns:xlink="http://www.w3.org/1999/xlink" x="0px" y="0px" width="1025px"
	 height="280px" viewBox="0 0 1025 280" enable-background="new 0 0 1025 280" xml:space="preserve">
<g id="Logos">
	<g>
		<g>
			<path fill-rule="evenodd" clip-rule="evenodd" fill="#FFFFFF" d="M230.166,105.625c13.443,30.921,12.637,67.48-5.377,98.67
				c-1.074,2.152-2.418,4.297-3.764,6.453l-0.27,0.271c-23.119,33.873-62.373,51.347-101.357,47.313l25.275-43.556l-9.412-5.379
				c-0.537,0.545-1.074,1.079-1.613,1.621l-52.156,59.415c59.148,24.198,128.779,1.344,161.576-55.657
				c25.545-44.085,22.318-97.053-4.027-136.84C236.889,87.344,234.199,96.754,230.166,105.625 M76.383,175.258l-9.41-5.373
				l-25.273,43.547c-22.848-31.72-27.418-74.468-9.676-111.299l0.268-0.27c1.076-2.42,2.42-4.571,3.494-6.721
				c18.014-31.189,49.471-50.277,82.807-53.771c5.916-8.064,12.369-15.058,19.627-21.776C90.633,16.907,43.043,40.562,17.504,84.658
				c-32.801,56.994-17.742,128.506,32.801,167.763l25.271-75.013C75.846,176.874,76.117,176.063,76.383,175.258"/>
			<path fill-rule="evenodd" clip-rule="evenodd" fill="#FFFFFF" d="M182.58,60.998c8.064,4.839,10.752,15.055,6.184,23.119
				c-4.57,8.066-15.053,10.757-23.121,6.186c-8.064-4.572-10.754-15.058-6.186-23.122C164.299,59.115,174.516,56.426,182.58,60.998
				 M142.791,173.644c-6.725,8.875-17.477,13.447-29.035,14.521c-3.496,0.271-6.723-1.612-8.336-4.839
				c-4.842-10.488-6.451-22.046-1.881-32.263l-52.697-30.381c-3.492-2.15-5.105-5.646-4.031-9.408
				c0.807-3.766,4.031-6.455,7.799-6.455l53.498-1.879c4.033-16.402,10.754-31.994,20.434-46.514
				c15.324-22.853,37.102-39.789,62.641-50.005c6.188-2.42,12.369-4.567,18.555-6.184c4.566-1.076,9.137,1.616,10.213,5.919
				c1.883,6.18,3.229,12.633,4.303,19.083c3.764,27.425-0.27,54.847-12.096,79.579c-7.529,15.596-18.018,29.039-30.115,40.865
				l25.004,47.05c1.885,3.494,1.344,7.528-1.611,10.218c-2.689,2.688-6.725,2.958-9.947,1.075L142.791,173.644z"/>
			<path fill-rule="evenodd" clip-rule="evenodd" fill="#FFFFFF" d="M64.016,264.786l56.996-64.793
				c-2.15,0.269-4.301,0.537-6.453,0.806c-8.604,0.539-16.668-4.033-20.428-12.095c-1.078-1.883-1.885-3.767-2.691-5.917
				L64.016,264.786z"/>
		</g>
		<path fill-rule="evenodd" clip-rule="evenodd" fill="#FFFFFF" d="M745.824,183.863h58.335c1.081,0,1.614,0.538,1.614,1.613v7.8
			c0,0.8-0.533,1.613-1.614,1.613h-68.286c-0.807,0-1.613-0.813-1.613-1.613V86.537c0-1.076,0.807-1.613,1.613-1.613h8.338
			c0.803,0,1.613,0.537,1.613,1.613V183.863z M662.211,118.262v75.015h18.547v-39.527c0-13.979,9.139-19.089,18.822-19.089
			c6.186,0,9.676,1.614,13.439,4.842l8.338-16.134c-4.039-4.03-11.561-7.257-19.357-7.257c-7.529,0-15.33,1.344-21.242,10.754
			l-1.342-8.604H662.211z M647.957,162.352c2.959-30.918-12.633-46.506-37.906-46.506c-24.197,0-39.789,16.396-39.789,39.251
			c0,24.194,15.322,40.055,41.133,40.055c11.561,0,24.463-4.033,32.26-12.095l-11.826-11.827
			c-4.305,4.565-13.172,6.986-20.164,6.986c-12.902,0-20.971-6.717-22.314-15.864H647.957z M589.617,147.032
			c2.957-9.951,11.023-14.79,20.971-14.79c10.752,0,18.281,4.839,19.625,14.79H589.617z M520.523,98.905v19.356h-13.977v16.134
			h13.977v32.259c0,18.822,10.484,27.96,26.883,27.422c5.648,0,9.951-1.072,15.324-3.228l-5.104-15.86
			c-2.689,1.345-6.186,2.42-8.875,2.42c-5.916,0-9.943-3.489-9.943-10.754v-32.259h20.971v-16.134H539.07V97.023L520.523,98.905z
			 M476.166,193.276v-57.808h22.041v-16.131h-22.041v-5.107c0-9.141,4.84-13.442,11.291-13.442c3.762,0,7.523,1.345,11.293,4.03
			l6.988-13.978c-6.186-3.763-12.906-5.917-19.625-5.917c-15.061,0-28.5,9.141-28.5,29.307v5.107h-13.98v16.131h13.98v57.808
			H476.166z M434.762,193.276h-18.551v-75.28h18.551V193.276z M414.598,97.023c0,14.52,21.777,14.52,21.777,0
			S414.598,82.504,414.598,97.023 M328.566,86.537v106.739h75.008v-18.558H348.73V86.537H328.566z M910.893,104.284l-37.635,57.532
			c-0.271,0.535-0.811,0.809-1.344,0.809h-2.693c-0.538,0-1.074-0.273-1.607-0.809l-37.911-57.805v89.265
			c0,0.8-0.802,1.613-1.614,1.613h-8.332c-0.808,0-1.613-0.813-1.613-1.613V86.537c0-1.076,0.806-1.613,1.613-1.613h9.946
			c0.535,0,1.074,0.271,1.344,0.537l39.25,60.223l38.991-59.953c0.263-0.535,0.802-0.807,1.343-0.807h10.215
			c0.805,0,1.613,0.537,1.613,1.613v106.739c0,0.8-0.809,1.613-1.613,1.613h-8.068c-1.073,0-1.884-0.813-1.884-1.613V104.284z
			 M1020.852,104.818l-6.719,3.766c-0.801,0.537-1.883,0.269-2.416-0.539c-6.994-11.291-18.285-13.442-30.65-13.442
			c-12.367-0.27-30.65,4.303-30.65,19.897c0,2.417,0.541,4.568,1.887,6.721c5.104,7.527,21.232,9.947,29.301,11.558
			c19.359,3.768,43.287,7.529,43.287,32.266c0,24.463-23.66,31.452-43.824,31.452c-17.752,0-36.834-7.53-45.167-23.922
			c-0.27-0.543-0.27-0.813-0.27-1.345c0.27-0.537,0.54-0.811,0.805-1.082l7.528-3.493c0.811-0.538,1.885-0.266,2.152,0.81
			c6.188,11.827,22.045,18.282,34.951,18.282c13.441,0,31.994-3.766,32.266-20.971c0-2.959-0.812-5.92-2.695-8.604
			c-5.646-8.065-21.775-10.754-30.918-12.367c-16.939-3.228-40.861-7.259-40.861-29.035c-0.539-23.123,22.85-31.188,42.209-31.188
			c17.471,0,30.111,3.496,40.326,18.819c0.264,0.27,0.264,0.804,0.264,1.345C1021.393,104.012,1021.123,104.554,1020.852,104.818"/>
	</g>
</g>
<g id="Clear_Space_Guides" display="none">
	<g display="inline">
		<line fill="#EC008B" x1="-14" y1="43.011" x2="1290" y2="43.011"/>
		<line fill="#EC008B" x1="125.614" y1="-377" x2="125.614" y2="183"/>
	</g>
</g>
</svg>
