<?xml version="1.0" encoding="utf-8"?>
<!-- Generator: Adobe Illustrator 16.0.0, SVG Export Plug-In . SVG Version: 6.00 Build 0)  -->
<!DOCTYPE svg PUBLIC "-//W3C//DTD SVG 1.1//EN" "http://www.w3.org/Graphics/SVG/1.1/DTD/svg11.dtd">
<svg version="1.1" xmlns="http://www.w3.org/2000/svg" xmlns:xlink="http://www.w3.org/1999/xlink" x="0px" y="0px" width="1025px"
	 height="280px" viewBox="0 0 1025 280" enable-background="new 0 0 1025 280" xml:space="preserve">
<g id="Logos">
	<g>
		<g>
			<path fill-rule="evenodd" clip-rule="evenodd" fill="#466DD8" d="M230.165,105.625c13.443,30.921,12.637,67.48-5.377,98.67
				c-1.074,2.152-2.418,4.297-3.764,6.453l-0.269,0.271c-23.12,33.873-62.373,51.347-101.357,47.313l25.274-43.556l-9.411-5.379
				c-0.537,0.545-1.075,1.079-1.613,1.621l-52.158,59.415c59.148,24.198,128.78,1.344,161.577-55.657
				c25.545-44.085,22.318-97.053-4.028-136.84C236.888,87.344,234.199,96.753,230.165,105.625 M76.383,175.258l-9.412-5.373
				L41.7,213.432c-22.849-31.72-27.419-74.468-9.676-111.299l0.267-0.269c1.077-2.42,2.42-4.572,3.495-6.721
				c18.014-31.19,49.47-50.277,82.807-53.771c5.915-8.064,12.369-15.057,19.627-21.777C90.632,16.907,43.043,40.562,17.504,84.658
				c-32.8,56.994-17.743,128.506,32.801,167.763l25.271-75.013C75.846,176.874,76.116,176.063,76.383,175.258"/>
			<path fill-rule="evenodd" clip-rule="evenodd" fill="#2295FF" d="M182.58,60.998c8.065,4.839,10.751,15.054,6.184,23.12
				c-4.57,8.065-15.053,10.756-23.122,6.185c-8.064-4.571-10.752-15.057-6.184-23.122C164.298,59.115,174.515,56.426,182.58,60.998
				 M142.79,173.644c-6.724,8.875-17.476,13.447-29.035,14.521c-3.495,0.271-6.723-1.612-8.336-4.839
				c-4.841-10.488-6.451-22.046-1.881-32.263l-52.697-30.38c-3.492-2.151-5.105-5.647-4.031-9.409
				c0.807-3.765,4.031-6.454,7.799-6.454l53.498-1.88c4.034-16.402,10.755-31.993,20.434-46.513
				c15.323-22.853,37.101-39.79,62.641-50.005c6.187-2.42,12.368-4.567,18.554-6.184c4.567-1.076,9.137,1.617,10.214,5.918
				c1.881,6.181,3.227,12.633,4.302,19.083c3.763,27.425-0.271,54.847-12.097,79.58c-7.529,15.595-18.018,29.038-30.114,40.865
				l25.002,47.05c1.885,3.494,1.344,7.528-1.611,10.218c-2.689,2.688-6.724,2.958-9.947,1.075L142.79,173.644z"/>
			<path fill-rule="evenodd" clip-rule="evenodd" fill="#F8954F" d="M64.015,264.786l56.998-64.793
				c-2.15,0.269-4.301,0.537-6.454,0.806c-8.603,0.539-16.667-4.033-20.428-12.095c-1.077-1.883-1.884-3.767-2.69-5.917
				L64.015,264.786z"/>
		</g>
		<path fill-rule="evenodd" clip-rule="evenodd" fill="#2295FF" d="M745.824,183.863h58.335c1.081,0,1.614,0.538,1.614,1.613v7.8
			c0,0.8-0.533,1.613-1.614,1.613h-68.286c-0.807,0-1.613-0.813-1.613-1.613V86.537c0-1.076,0.807-1.613,1.613-1.613h8.338
			c0.803,0,1.613,0.538,1.613,1.613V183.863z M662.21,118.262v75.015h18.547v-39.527c0-13.979,9.139-19.089,18.823-19.089
			c6.186,0,9.676,1.614,13.439,4.842l8.338-16.134c-4.039-4.031-11.561-7.257-19.357-7.257c-7.529,0-15.33,1.345-21.243,10.754
			l-1.342-8.603H662.21z M647.957,162.352c2.959-30.918-12.633-46.506-37.906-46.506c-24.197,0-39.788,16.396-39.788,39.251
			c0,24.194,15.321,40.055,41.133,40.055c11.56,0,24.463-4.033,32.26-12.095l-11.827-11.827c-4.304,4.565-13.172,6.986-20.164,6.986
			c-12.902,0-20.971-6.717-22.313-15.864H647.957z M589.617,147.032c2.958-9.951,11.024-14.791,20.971-14.791
			c10.753,0,18.281,4.839,19.626,14.791H589.617z M520.524,98.905v19.356h-13.978v16.134h13.978v32.259
			c0,18.822,10.484,27.96,26.882,27.422c5.649,0,9.951-1.072,15.324-3.228l-5.104-15.86c-2.688,1.345-6.186,2.42-8.875,2.42
			c-5.915,0-9.943-3.489-9.943-10.754v-32.259h20.971v-16.134H539.07V97.023L520.524,98.905z M476.165,193.276v-57.808h22.042
			v-16.131h-22.042v-5.106c0-9.142,4.841-13.443,11.292-13.443c3.762,0,7.522,1.345,11.292,4.031l6.989-13.978
			c-6.186-3.762-12.906-5.917-19.625-5.917c-15.06,0-28.499,9.141-28.499,29.307v5.106h-13.98v16.131h13.98v57.808H476.165z
			 M434.762,193.276h-18.55v-75.281h18.55V193.276z M414.598,97.023c0,14.52,21.777,14.52,21.777,0
			C436.375,82.504,414.598,82.504,414.598,97.023 M328.566,86.537v106.739h75.008v-18.558H348.73V86.537H328.566z M910.893,104.284
			l-37.635,57.532c-0.271,0.535-0.811,0.809-1.344,0.809h-2.693c-0.538,0-1.074-0.273-1.607-0.809l-37.911-57.805v89.265
			c0,0.8-0.802,1.613-1.614,1.613h-8.332c-0.808,0-1.613-0.813-1.613-1.613V86.537c0-1.076,0.806-1.613,1.613-1.613h9.946
			c0.535,0,1.074,0.271,1.344,0.538l39.25,60.222l38.991-59.953c0.263-0.536,0.802-0.807,1.343-0.807h10.215
			c0.805,0,1.613,0.538,1.613,1.613v106.739c0,0.8-0.809,1.613-1.613,1.613h-8.068c-1.073,0-1.884-0.813-1.884-1.613V104.284z
			 M1020.852,104.819l-6.719,3.765c-0.801,0.537-1.883,0.269-2.416-0.539c-6.994-11.292-18.285-13.443-30.65-13.443
			c-12.367-0.27-30.65,4.303-30.65,19.898c0,2.417,0.541,4.568,1.887,6.72c5.104,7.527,21.232,9.947,29.301,11.558
			c19.359,3.768,43.287,7.529,43.287,32.266c0,24.463-23.66,31.452-43.824,31.452c-17.752,0-36.834-7.53-45.167-23.922
			c-0.27-0.543-0.27-0.813-0.27-1.345c0.27-0.537,0.54-0.811,0.805-1.082l7.528-3.493c0.811-0.538,1.885-0.266,2.152,0.81
			c6.188,11.827,22.045,18.282,34.951,18.282c13.441,0,31.994-3.766,32.266-20.971c0-2.959-0.812-5.92-2.695-8.604
			c-5.646-8.065-21.775-10.754-30.918-12.367c-16.939-3.228-40.861-7.259-40.861-29.036c-0.539-23.123,22.85-31.187,42.209-31.187
			c17.471,0,30.111,3.497,40.326,18.819c0.264,0.27,0.264,0.803,0.264,1.345C1021.393,104.012,1021.123,104.554,1020.852,104.819"/>
	</g>
</g>
<g id="Clear_Space_Guides" display="none">
	<g display="inline">
		<line fill="#EC008B" x1="-14" y1="193.011" x2="1290" y2="193.011"/>
		<line fill="#EC008B" x1="125.614" y1="-227" x2="125.614" y2="333"/>
	</g>
</g>
</svg>
