<?xml version="1.0" encoding="utf-8"?>
<!-- Generator: Adobe Illustrator 16.0.0, SVG Export Plug-In . SVG Version: 6.00 Build 0)  -->
<!DOCTYPE svg PUBLIC "-//W3C//DTD SVG 1.1//EN" "http://www.w3.org/Graphics/SVG/1.1/DTD/svg11.dtd">
<svg version="1.1" xmlns="http://www.w3.org/2000/svg" xmlns:xlink="http://www.w3.org/1999/xlink" x="0px" y="0px" width="350px"
	 height="350px" viewBox="0 0 350 350" enable-background="new 0 0 350 350" xml:space="preserve">
<g id="Logos">
	<g>
		<g>
			<path fill-rule="evenodd" clip-rule="evenodd" fill="#808080" d="M274.807,140.625c13.443,30.921,12.637,67.48-5.377,98.67
				c-1.074,2.152-2.418,4.297-3.764,6.453l-0.27,0.271c-23.119,33.873-62.372,51.347-101.356,47.313l25.274-43.556l-9.411-5.379
				c-0.537,0.545-1.075,1.079-1.613,1.621l-52.157,59.415c59.148,24.198,128.779,1.344,161.576-55.657
				c25.545-44.085,22.318-97.053-4.027-136.84C281.529,122.344,278.84,131.754,274.807,140.625 M121.024,210.258l-9.411-5.373
				l-25.272,43.547c-22.849-31.72-27.419-74.468-9.677-111.299l0.268-0.27c1.077-2.42,2.42-4.571,3.494-6.721
				c18.014-31.189,49.471-50.277,82.807-53.771c5.916-8.064,12.369-15.058,19.628-21.776
				c-47.587-2.688-95.177,20.967-120.716,65.062c-32.8,56.994-17.742,128.506,32.801,167.763l25.271-75.013
				C120.487,211.874,120.758,211.063,121.024,210.258"/>
			<path fill-rule="evenodd" clip-rule="evenodd" fill="#808080" d="M227.221,95.998c8.064,4.839,10.752,15.055,6.184,23.119
				c-4.57,8.066-15.053,10.757-23.121,6.186c-8.064-4.572-10.753-15.058-6.185-23.122C208.939,94.115,219.156,91.426,227.221,95.998
				 M187.432,208.644c-6.725,8.875-17.477,13.447-29.035,14.521c-3.495,0.271-6.723-1.612-8.336-4.839
				c-4.841-10.488-6.451-22.046-1.881-32.263l-52.697-30.381c-3.492-2.15-5.105-5.646-4.031-9.408
				c0.807-3.766,4.031-6.455,7.799-6.455l53.498-1.879c4.033-16.402,10.755-31.994,20.434-46.514
				c15.324-22.853,37.102-39.789,62.641-50.005c6.188-2.42,12.369-4.567,18.555-6.184c4.566-1.076,9.137,1.616,10.214,5.919
				c1.882,6.18,3.228,12.633,4.302,19.083c3.764,27.425-0.27,54.847-12.096,79.579c-7.529,15.596-18.018,29.039-30.114,40.865
				l25.003,47.05c1.885,3.494,1.344,7.528-1.611,10.218c-2.689,2.688-6.725,2.958-9.947,1.075L187.432,208.644z"/>
			<path fill-rule="evenodd" clip-rule="evenodd" fill="#808080" d="M108.656,299.786l56.997-64.793
				c-2.15,0.269-4.301,0.537-6.454,0.806c-8.603,0.539-16.668-4.033-20.428-12.095c-1.078-1.883-1.885-3.767-2.691-5.917
				L108.656,299.786z"/>
		</g>
	</g>
</g>
<g id="Clear_Space_Guides" display="none">
	<g display="inline">
		<line fill="#EC008B" x1="-176" y1="213.011" x2="364" y2="213.011"/>
		<line fill="#EC008B" x1="224.249" y1="-207" x2="224.249" y2="353"/>
	</g>
</g>
</svg>
