<?xml version="1.0" encoding="UTF-8" standalone="no"?><!DOCTYPE svg PUBLIC "-//W3C//DTD SVG 1.1//EN" "http://www.w3.org/Graphics/SVG/1.1/DTD/svg11.dtd"><svg width="100%" height="100%" viewBox="0 0 246 68" version="1.1" xmlns="http://www.w3.org/2000/svg" xmlns:xlink="http://www.w3.org/1999/xlink" xml:space="preserve" xmlns:serif="http://www.serif.com/" style="fill-rule:evenodd;clip-rule:evenodd;stroke-linejoin:round;stroke-miterlimit:1.41421;"><rect id="Logo-Grey" serif:id="Logo Grey" x="0" y="0.206" width="246" height="67.2" style="fill:none;"/><clipPath id="_clip1"><rect x="0" y="0.206" width="246" height="67.2"/></clipPath><g clip-path="url(#_clip1)"><path id="LifterLMS" d="M245.004,25.363l-1.612,0.903c-0.192,0.129 -0.452,0.065 -0.58,-0.129c-1.679,-2.71 -4.388,-3.226 -7.356,-3.226c-2.968,-0.065 -7.356,1.032 -7.356,4.775c0,0.58 0.13,1.097 0.453,1.613c1.225,1.807 5.096,2.388 7.032,2.774c4.646,0.904 10.389,1.807 10.389,7.744c0,5.871 -5.679,7.548 -10.518,7.548c-4.26,0 -8.84,-1.807 -10.84,-5.741c-0.065,-0.13 -0.065,-0.195 -0.065,-0.323c0.065,-0.129 0.13,-0.194 0.193,-0.259l1.807,-0.839c0.195,-0.129 0.452,-0.064 0.517,0.195c1.485,2.838 5.291,4.387 8.388,4.387c3.226,0 7.679,-0.904 7.744,-5.033c0,-0.71 -0.195,-1.421 -0.647,-2.064c-1.355,-1.936 -5.226,-2.581 -7.421,-2.969c-4.065,-0.774 -9.806,-1.742 -9.806,-6.968c-0.13,-5.55 5.484,-7.485 10.13,-7.485c4.193,0 7.227,0.839 9.678,4.517c0.064,0.064 0.064,0.192 0.064,0.322c-0.064,0.064 -0.129,0.194 -0.194,0.258m-26.39,-0.129l-9.032,13.808c-0.065,0.129 -0.195,0.194 -0.322,0.194l-0.647,0c-0.129,0 -0.258,-0.065 -0.386,-0.194l-9.098,-13.873l0,21.424c0,0.192 -0.193,0.387 -0.388,0.387l-2,0c-0.193,0 -0.387,-0.195 -0.387,-0.387l0,-25.618c0,-0.258 0.194,-0.387 0.387,-0.387l2.388,0c0.128,0 0.257,0.065 0.322,0.129l9.42,14.453l9.358,-14.389c0.063,-0.128 0.192,-0.193 0.322,-0.193l2.452,0c0.193,0 0.387,0.129 0.387,0.387l0,25.618c0,0.192 -0.194,0.387 -0.387,0.387l-1.937,0c-0.257,0 -0.452,-0.195 -0.452,-0.387l0,-21.359Zm-139.758,-4.259l0,25.618l18.002,0l0,-4.454l-13.163,0l0,-21.164l-4.839,0Zm20.647,2.517c0,3.485 5.227,3.485 5.227,0c0,-3.485 -5.227,-3.485 -5.227,0m4.84,23.101l-4.452,0l0,-18.068l4.452,0l0,18.068Zm9.937,0l0,-13.874l5.29,0l0,-3.872l-5.29,0l0,-1.226c0,-2.193 1.161,-3.226 2.71,-3.226c0.902,0 1.805,0.323 2.71,0.968l1.677,-3.355c-1.484,-0.903 -3.097,-1.42 -4.71,-1.42c-3.614,0 -6.84,2.194 -6.84,7.033l0,1.226l-3.355,0l0,3.872l3.355,0l0,13.874l4.453,0Zm10.646,-22.65l0,4.646l-3.355,0l0,3.872l3.355,0l0,7.742c0,4.518 2.516,6.711 6.452,6.582c1.355,0 2.388,-0.258 3.677,-0.775l-1.225,-3.807c-0.645,0.323 -1.484,0.581 -2.13,0.581c-1.419,0 -2.386,-0.837 -2.386,-2.581l0,-7.742l5.033,0l0,-3.872l-4.97,0l0,-5.097l-4.451,0.451Zm16.582,11.551c0.71,-2.388 2.646,-3.55 5.033,-3.55c2.581,0 4.388,1.162 4.71,3.55l-9.743,0Zm14.002,3.677c0.71,-7.421 -3.032,-11.162 -9.098,-11.162c-5.807,0 -9.549,3.935 -9.549,9.42c0,5.807 3.677,9.614 9.872,9.614c2.774,0 5.871,-0.968 7.742,-2.903l-2.838,-2.839c-1.033,1.096 -3.161,1.677 -4.839,1.677c-3.097,0 -5.034,-1.612 -5.356,-3.807l14.066,0Zm3.421,-10.582l0,18.004l4.451,0l0,-9.487c0,-3.355 2.193,-4.581 4.517,-4.581c1.485,0 2.322,0.387 3.226,1.162l2.001,-3.872c-0.97,-0.968 -2.775,-1.742 -4.646,-1.742c-1.807,0 -3.679,0.322 -5.098,2.581l-0.322,-2.065l-4.129,0Zm20.067,15.744l14,0c0.26,0 0.388,0.13 0.388,0.388l0,1.872c0,0.192 -0.128,0.387 -0.388,0.387l-16.389,0c-0.193,0 -0.387,-0.195 -0.387,-0.387l0,-25.618c0,-0.258 0.194,-0.387 0.387,-0.387l2.002,0c0.192,0 0.387,0.129 0.387,0.387l0,23.358Z" style="fill:#808080;"/><g id="Icon"><path d="M18.332,42.268l-2.259,-1.289l-6.065,10.451c-5.484,-7.613 -6.581,-17.873 -2.322,-26.712l0.064,-0.065c0.258,-0.58 0.581,-1.097 0.838,-1.613c4.324,-7.485 11.873,-12.066 19.874,-12.905c1.42,-1.935 2.969,-3.613 4.711,-5.226c-11.421,-0.645 -22.843,5.032 -28.972,15.615c-7.872,13.679 -4.258,30.841 7.872,40.263l6.065,-18.003c0.065,-0.128 0.13,-0.323 0.194,-0.516m36.908,-16.712c3.226,7.421 3.033,16.196 -1.291,23.681c-0.257,0.516 -0.58,1.031 -0.903,1.549l-0.065,0.065c-5.548,8.129 -14.969,12.323 -24.325,11.355l6.066,-10.453l-2.259,-1.291c-0.129,0.131 -0.258,0.259 -0.387,0.389l-12.518,14.26c14.196,5.807 30.907,0.322 38.779,-13.358c6.13,-10.581 5.356,-23.293 -0.967,-32.842c-0.517,2.258 -1.162,4.516 -2.13,6.645" style="fill:#808080;"/><path d="M34.27,41.881c-1.614,2.13 -4.195,3.227 -6.969,3.485c-0.839,0.065 -1.613,-0.387 -2,-1.162c-1.162,-2.517 -1.548,-5.291 -0.452,-7.743l-12.647,-7.291c-0.838,-0.516 -1.225,-1.355 -0.967,-2.258c0.193,-0.904 0.967,-1.549 1.871,-1.549l12.84,-0.451c0.968,-3.937 2.581,-7.679 4.904,-11.164c3.678,-5.484 8.904,-9.549 15.034,-12.001c1.485,-0.581 2.968,-1.096 4.453,-1.484c1.096,-0.258 2.193,0.388 2.451,1.421c0.452,1.483 0.775,3.032 1.032,4.58c0.904,6.582 -0.064,13.163 -2.903,19.099c-1.807,3.743 -4.324,6.969 -7.227,9.807l6.001,11.292c0.452,0.839 0.322,1.807 -0.387,2.453c-0.645,0.645 -1.614,0.709 -2.387,0.258l-12.647,-7.292Zm9.549,-27.035c1.936,1.161 2.581,3.613 1.484,5.548c-1.097,1.936 -3.612,2.582 -5.549,1.485c-1.935,-1.097 -2.581,-3.614 -1.484,-5.549c1.162,-1.936 3.614,-2.582 5.549,-1.484" style="fill:#808080;"/><path d="M15.364,63.755l13.679,-15.55c-0.516,0.064 -1.032,0.128 -1.549,0.193c-2.065,0.129 -4,-0.968 -4.903,-2.903c-0.258,-0.452 -0.452,-0.904 -0.645,-1.42l-6.582,19.68Z" style="fill:#808080;"/></g></g></svg>